# xmcd
#
# Track frame offsets: 
#        150
#        4425
#        20939
#        36665
#        59736
#        77554
#        95846
#        116929
#        136297
#        158422
#        175860
#        199035
#        218467
#
# Disc length: 3133 seconds
#
# Revision: 0
# Processed by: cddbd v1.5.2PL0 Copyright (c) Steve Scherf et al.
# Submitted via: ExactAudioCopy v0.99pb4
#
DISCID=bb0c3b0d
DTITLE=The Chi-Lites - Low Key
DYEAR=2006
DGENRE=Soul
TTITLE0=Anyway
TTITLE1=Low Key
TTITLE2=Still In My Head
TTITLE3=Hold On To Your Dream
TTITLE4=The Sly, The Slick And Wicked
TTITLE5=Just Say You Love Me
TTITLE6=Nothing Last Forever
TTITLE7=All My Love
TTITLE8=There's The Change
TTITLE9=Help Wanted (Heroes Are In Short Supply)
TTITLE10=I Will Never Be Lonely Again
TTITLE11=Still In My Head (Extended Mix)
TTITLE12=Low Key (Remixed)
EXTD=
EXTT0=
EXTT1=
EXTT2=
EXTT3=
EXTT4=
EXTT5=
EXTT6=
EXTT7=
EXTT8=
EXTT9=
EXTT10=
EXTT11=
EXTT12=
PLAYORDER=
